<svg width="126" height="85" viewBox="0 0 126 85" fill="none" xmlns="http://www.w3.org/2000/svg">
<path fill-rule="evenodd" clip-rule="evenodd" d="M16.2491 45.4762C13.5937 41.7688 12.9257 37.7608 14.2617 34.0033L2.07067 31.5317C1.38597 31.3981 0.985168 30.8469 1.06867 30.2123C1.06867 30.0954 0.868267 19.1235 1.15217 18.3553C1.43607 17.6038 2.32118 17.1362 3.10608 17.3032L15.5811 19.8416C17.0841 17.4869 19.4388 15.2992 22.6786 13.4454C24.8663 12.1762 27.3045 11.1575 29.9097 10.3559C29.9097 9.12012 29.8429 2.70728 29.8596 2.33988C29.893 1.65518 30.3606 1.13748 31.2123 1.02058C32.5149 0.853575 34.1683 1.72198 34.9198 2.94109L38.36 8.58572C49.215 7.29981 61.2892 9.23702 70.0735 14.3139C70.1403 14.3473 70.2071 14.3974 70.2572 14.4308C70.2906 14.4475 70.324 14.4642 70.3574 14.4976L74.8664 17.1028V13.5289C74.8664 12.2931 75.6179 11.1241 77.1209 10.2557C80.4609 8.33522 86.306 8.56902 90.1637 10.7901L114.913 25.0854C117.017 26.3045 118.103 27.8576 118.103 29.3439C118.103 30.5797 117.886 40.533 118.07 41.869C118.253 43.2384 117.535 44.5911 115.832 45.5597C114.212 46.4949 112.024 46.9124 109.753 46.8456L121.71 53.7595C124.082 55.1289 125.15 56.9158 124.85 58.5524C124.666 59.5878 124.933 68.8898 124.9 69.7081C124.833 70.8771 124.098 71.9793 122.645 72.8143C119.305 74.7348 113.46 74.501 109.603 72.2632L108.617 71.6954L107.699 71.1109C107.699 71.1109 107.732 78.5591 107.732 79.8116C107.599 80.8971 106.847 81.9158 105.494 82.7007C102.154 84.6213 96.3093 84.3875 92.4516 82.1663L79.3587 74.6012L76.5865 76.2044C73.5304 77.9746 68.1697 77.7575 64.6292 75.7034L58.0828 71.9125C58.0828 71.9125 58.1997 75.6366 58.0661 77.173C57.9659 78.3086 57.2311 79.3941 55.8283 80.1957C52.4883 82.1329 46.6432 81.8824 42.7855 79.6613L18.036 65.366C15.7147 64.03 14.6291 62.2598 14.8796 60.6566C15.0466 59.6045 14.8462 49.6346 14.8462 48.1649C14.8462 47.1963 15.2972 46.2778 16.2324 45.4929L16.2491 45.4762Z" fill="#6E00DC" stroke="black" stroke-width="0.5" stroke-miterlimit="1.5" stroke-linecap="square"/>
<path d="M107.732 79.6781V68.272" stroke="black" stroke-width="0.5" stroke-miterlimit="1.5" stroke-linecap="square"/>
<path fill-rule="evenodd" clip-rule="evenodd" d="M15.5808 19.8416C17.0838 17.4869 19.4385 15.2992 22.6783 13.4454C25.9014 11.575 29.6924 10.2223 33.7672 9.35392L30.2268 3.54229C29.4752 2.32318 29.9262 1.18758 31.2288 1.02058C32.5314 0.853575 34.1847 1.72198 34.9362 2.94109L38.3764 8.60242C49.2315 7.31651 61.3056 9.25372 70.0899 14.3306C70.1567 14.364 70.2235 14.3974 70.2736 14.4475C70.307 14.4642 70.3404 14.4809 70.3738 14.4976L110.554 37.694C114.095 39.7314 114.479 42.8209 111.406 44.5911L108.634 46.1943L121.743 53.7595C125.601 55.9806 126.019 59.354 122.678 61.2912C119.338 63.2117 113.493 62.9779 109.636 60.7568L96.5261 53.1917L91.4827 56.0975L104.592 63.6626C108.45 65.8838 108.868 69.2572 105.527 71.1944C102.187 73.1149 96.3424 72.8811 92.4847 70.66L79.3751 63.0948L76.6029 64.698C73.5468 66.4682 68.1861 66.2512 64.6456 64.197L24.4652 41.0006C24.4652 41.0006 24.3984 40.9672 24.365 40.9338C24.2982 40.9004 24.2314 40.867 24.1813 40.8169C15.3971 35.7401 12.0403 28.7761 14.2615 22.4969L2.07039 20.0253C1.26879 19.8583 0.851283 19.1235 1.15188 18.372C1.43579 17.6205 2.32089 17.1529 3.1058 17.3032L15.5808 19.8249V19.8416Z" fill="white" stroke="black" stroke-width="0.5" stroke-miterlimit="1.5" stroke-linecap="square"/>
<path d="M14.2451 33.9363V30.3291" stroke="black" stroke-width="0.5" stroke-miterlimit="1.5" stroke-linecap="square"/>
<path d="M79.375 74.5845V63.3286" stroke="black" stroke-width="0.5" stroke-miterlimit="1.5" stroke-linecap="square"/>
<path d="M96.543 58.9029V53.4253" stroke="black" stroke-width="0.5" stroke-miterlimit="1.5" stroke-linecap="square"/>
<path fill-rule="evenodd" clip-rule="evenodd" d="M78.0729 17.754L102.822 32.0493C106.68 34.2704 112.525 34.5209 115.865 32.5837C119.205 30.6632 118.788 27.2898 114.93 25.052L90.1804 10.7567C86.3227 8.53559 80.4777 8.28509 77.1377 10.2223C73.7977 12.1428 74.2152 15.5162 78.0729 17.754Z" fill="white" stroke="black" stroke-width="0.5" stroke-miterlimit="1.5" stroke-linecap="square"/>
<path fill-rule="evenodd" clip-rule="evenodd" d="M30.1604 45.4259L54.91 59.7212C58.7677 61.9423 59.1852 65.3158 55.8452 67.253C52.5052 69.1735 46.6601 68.9397 42.8024 66.7186L18.0529 52.4233C14.1951 50.2022 13.7776 46.8287 17.1177 44.8915C20.4577 42.971 26.3027 43.2048 30.1604 45.4259Z" fill="white" stroke="black" stroke-width="0.5" stroke-miterlimit="1.5" stroke-linecap="square"/>
<path d="M25.2007 41.3846L71.0926 14.8816" stroke="black" stroke-width="0.5"/>
<path d="M25.7678 27.4566C26.3189 27.1393 26.2521 26.5715 25.6175 26.2041C24.9662 25.8367 23.9976 25.7866 23.4465 26.1206C22.8954 26.4379 22.9622 27.0057 23.5968 27.3731C24.2481 27.7405 25.2167 27.7906 25.7678 27.4566Z" fill="black"/>
<path d="M46.9435 15.2157C47.4947 14.8984 47.4278 14.3306 46.7932 13.9632C46.1419 13.5958 45.1733 13.5457 44.6222 13.8797C44.0711 14.197 44.1379 14.7648 44.7725 15.1322C45.4238 15.4996 46.3924 15.5497 46.9435 15.2157Z" fill="black"/>
<path d="M58.1162 71.9791V64.5977" stroke="black" stroke-width="0.5" stroke-miterlimit="1.5" stroke-linecap="square"/>
</svg>
