<svg width="126" height="82" viewBox="0 0 126 82" fill="none" xmlns="http://www.w3.org/2000/svg">
<path fill-rule="evenodd" clip-rule="evenodd" d="M38.7037 29.4891C38.7037 22.5749 43.7449 15.2932 53.5823 9.60435C71.5765 -0.793126 98.8656 -1.91339 114.444 7.08375C121.516 11.1622 124.982 16.6235 124.982 22.3474V31.4321C124.982 38.3462 119.941 45.6279 110.086 51.3168C92.0914 61.7143 64.8199 62.8345 49.2237 53.8374C42.0995 49.7239 38.6512 44.1926 38.7037 38.4162C38.7212 36.9459 38.7037 31.012 38.7037 29.4891ZM117.753 15.6083C117.087 15.1532 116.405 14.7156 115.687 14.2955C101.911 6.34858 77.7905 7.34632 61.8792 16.5185C49.6438 23.5902 45.8104 33.445 50.9391 41.2519C51.5868 41.707 52.287 42.1446 53.0046 42.5647C66.7804 50.5116 90.8837 49.5139 106.795 40.3417C119.03 33.27 122.881 23.4151 117.753 15.6083Z" fill="white" stroke="black" stroke-width="0.62" stroke-miterlimit="1.5" stroke-linecap="square"/>
<path fill-rule="evenodd" clip-rule="evenodd" d="M38.7046 29.4716C38.7046 22.5575 43.7633 15.2932 53.6181 9.60439C71.6124 -0.793089 98.8839 -1.93086 114.48 7.08379C121.534 11.1448 125.018 16.6236 125 22.3299C125 29.2441 119.959 36.5258 110.122 42.2147C92.1273 52.6121 64.8558 53.7499 49.2596 44.7353C42.1879 40.6568 38.7221 35.1955 38.7221 29.4716H38.7046ZM117.753 15.5908C117.106 15.1357 116.406 14.6981 115.67 14.2605C101.912 6.31361 77.7914 7.29384 61.8801 16.4835C49.6447 23.5552 45.7938 33.4101 50.94 41.2169C51.5877 41.672 52.2878 42.1096 53.023 42.5472C66.7813 50.4941 90.902 49.5139 106.813 40.3242C119.049 33.2525 122.9 23.3977 117.753 15.5908Z" fill="white" stroke="black" stroke-width="0.62" stroke-miterlimit="1.5" stroke-linecap="square"/>
<path fill-rule="evenodd" clip-rule="evenodd" d="M50.9568 41.2345C39.4741 33.1301 41.8371 20.1945 56.8907 11.495C72.802 2.30526 96.9053 1.30753 110.681 9.27192C113.849 11.0924 116.195 13.2454 117.753 15.6084C117.105 15.1533 116.422 14.7157 115.687 14.2781C101.911 6.31372 77.8082 7.32896 61.8969 16.5187C49.6615 23.5903 45.7931 33.4452 50.9568 41.252V41.2345Z" fill="white" stroke="black" stroke-width="0.62" stroke-miterlimit="1.5" stroke-linecap="square"/>
<path fill-rule="evenodd" clip-rule="evenodd" d="M50.9568 41.2345C39.4741 33.1301 41.8371 20.1945 56.8907 11.495C72.802 2.30526 96.9053 1.30753 110.681 9.27192C113.849 11.0924 116.195 13.2454 117.753 15.6084C117.105 15.1533 116.422 14.7157 115.687 14.2781C101.911 6.31372 77.8082 7.32896 61.8969 16.5187C49.6615 23.5903 45.7931 33.4452 50.9568 41.252V41.2345Z" fill="black" stroke="black" stroke-width="0.62" stroke-miterlimit="1.5" stroke-linecap="square"/>
<path fill-rule="evenodd" clip-rule="evenodd" d="M41.19 49.6364C41.2775 49.5839 46.7213 45.908 47.2989 45.663C47.719 45.4879 48.2266 45.5229 48.7868 45.8555C50.1521 46.6432 51.2374 48.7437 51.2374 50.5466V50.6167C51.2199 51.6144 50.8698 52.2971 50.3271 52.5596C49.907 52.7697 44.6558 55.6404 44.2357 55.9204C43.8156 56.2005 43.2555 56.2005 42.6778 55.8504C41.435 55.1327 40.4373 53.2423 40.3848 51.5969V51.4919C40.3848 51.3868 40.3848 51.2993 40.4023 51.2118C40.4548 50.4416 40.7524 49.8815 41.19 49.6364Z" fill="#6E00DC" stroke="black" stroke-width="0.5" stroke-miterlimit="1.5" stroke-linecap="square"/>
<path d="M42.6603 55.8505C41.4 55.1328 40.3848 53.1898 40.3848 51.5094C40.3848 49.829 41.4 49.0763 42.6603 49.794C43.9206 50.5117 44.9359 52.4547 44.9359 54.1351C44.9359 55.8155 43.9206 56.5681 42.6603 55.8505Z" fill="white" stroke="black" stroke-width="0.62" stroke-miterlimit="1.5" stroke-linecap="square"/>
<path fill-rule="evenodd" clip-rule="evenodd" d="M2.57552 69.1362C2.71556 69.0487 37.2163 47.8511 38.319 47.361C39.1242 47.0109 40.1045 47.0984 41.1372 47.7286C43.7103 49.2164 45.8108 53.2074 45.8108 56.6557V56.7957C45.7758 58.6862 45.1107 59.999 44.0604 60.5066C43.2552 60.8917 9.10458 80.5664 8.31689 81.109C7.54671 81.6342 6.49646 81.6342 5.35869 80.969C3.01313 79.6212 1.10517 76.0328 1.03516 72.8821V72.1294C1.14018 70.6591 1.73532 69.6088 2.57552 69.1537V69.1362Z" fill="white" stroke="black" stroke-width="0.62" stroke-miterlimit="1.5" stroke-linecap="square"/>
<path fill-rule="evenodd" clip-rule="evenodd" d="M12.7626 78.4132C13.4978 77.8005 13.9529 76.6628 13.9529 75.1049C13.9529 71.9016 12.0099 68.1907 9.61185 66.7904C8.5616 66.1778 7.59887 66.1252 6.84619 66.5103" fill="white"/>
<path d="M12.7626 78.4132C13.4978 77.8005 13.9529 76.6628 13.9529 75.1049C13.9529 71.9016 12.0099 68.1907 9.61185 66.7904C8.5616 66.1778 7.59887 66.1252 6.84619 66.5103" stroke="black" stroke-width="0.62" stroke-miterlimit="1.5" stroke-linecap="square"/>
<path d="M5.32353 80.9515C2.94296 79.5686 1 75.8753 1 72.707C1 69.5387 2.92546 68.0684 5.32353 69.4512C7.7216 70.8341 9.64706 74.5274 9.64706 77.6957C9.64706 80.864 7.7216 82.3343 5.32353 80.9515Z" fill="#6E00DC" stroke="black" stroke-width="0.5" stroke-miterlimit="1.5" stroke-linecap="square"/>
</svg>
