<svg width="23" height="22" viewBox="0 0 23 22" fill="none" xmlns="http://www.w3.org/2000/svg">
<path fill-rule="evenodd" clip-rule="evenodd" d="M0.890137 10.9173C0.890137 6.55627 0.890137 4.37576 1.92933 2.8052C2.39338 2.10387 2.99401 1.50325 3.69534 1.03919C5.2659 0 7.44641 0 11.8074 0C16.1684 0 18.349 0 19.9195 1.03919C20.6208 1.50325 21.2215 2.10387 21.6855 2.8052C22.7247 4.37576 22.7247 6.55627 22.7247 10.9173C22.7247 15.2783 22.7247 17.4588 21.6855 19.0294C21.2215 19.7307 20.6208 20.3313 19.9195 20.7954C18.349 21.8346 16.1684 21.8346 11.8074 21.8346C7.44641 21.8346 5.2659 21.8346 3.69534 20.7954C2.99401 20.3313 2.39338 19.7307 1.92933 19.0294C0.890137 17.4588 0.890137 15.2783 0.890137 10.9173ZM17.4592 10.9174C17.4592 14.0389 14.9287 16.5694 11.8072 16.5694C8.68564 16.5694 6.15514 14.0389 6.15514 10.9174C6.15514 7.79587 8.68564 5.26538 11.8072 5.26538C14.9287 5.26538 17.4592 7.79587 17.4592 10.9174ZM11.8072 14.6572C13.8726 14.6572 15.5469 12.9828 15.5469 10.9174C15.5469 8.85196 13.8726 7.17761 11.8072 7.17761C9.74173 7.17761 8.06737 8.85196 8.06737 10.9174C8.06737 12.9828 9.74173 14.6572 11.8072 14.6572ZM17.6825 6.30944C18.4159 6.30944 19.0105 5.71485 19.0105 4.98138C19.0105 4.24792 18.4159 3.65333 17.6825 3.65333C16.949 3.65333 16.3544 4.24792 16.3544 4.98138C16.3544 5.71485 16.949 6.30944 17.6825 6.30944Z" fill="white"/>
</svg>
