<svg width="114" height="85" viewBox="0 0 114 85" fill="none" xmlns="http://www.w3.org/2000/svg">
<path fill-rule="evenodd" clip-rule="evenodd" d="M25.6817 15.3883C25.5979 16.6781 25.6817 25.2038 25.1792 26.6276C25.4639 26.5103 25.7319 26.3763 25.9832 26.2423C29.2829 24.3328 29.9864 18.8221 36.2509 15.1873C38.6294 13.8138 47.4232 9.0401 62.3474 11.1506C62.2972 11.6698 59.3157 19.8103 71.6772 26.9458C85.9817 35.2036 101.911 31.8536 102.346 31.7363C102.598 31.9373 107.556 36.7278 110.286 42.9421C111.542 45.8566 112.748 48.8046 112.748 51.4176V60.3118C112.748 62.6066 111.827 64.6333 109.164 66.1576C103.485 69.4238 98.2259 68.0838 91.6767 71.8693C85.2949 75.5543 86.9699 79.1221 81.7774 82.1203C76.5849 85.1186 67.4729 84.0466 56.5687 82.5558C43.8219 80.7636 27.6247 75.9061 15.9499 69.1726C5.14617 62.9416 0.774424 56.3588 1.00892 50.7643C1.05917 49.4076 1.00892 43.7628 1.00892 42.3056C1.00892 38.0343 3.67217 34.2823 8.22817 31.6693C10.1209 30.5806 12.3822 29.8436 14.6937 29.2406C11.6284 26.6611 9.86967 23.6461 9.30017 21.1838C9.14942 20.6311 9.08242 20.0783 9.04892 19.5088C8.94842 17.8171 9.06567 11.1506 9.04892 10.5811C8.86467 6.9631 10.7909 3.19435 14.2749 1.01685C14.9449 1.2681 15.6819 1.6366 16.3687 2.0386C21.2932 4.90285 24.3919 8.78885 25.3467 12.3398C25.6649 13.3281 25.7654 14.3666 25.6817 15.4051V15.3883Z" fill="#6E00DC" stroke="black" stroke-width="0.5" stroke-miterlimit="1.5" stroke-linecap="square"/>
<path d="M62.364 11.1505C62.3137 11.6865 59.3322 19.827 71.6937 26.9625C85.9815 35.2202 101.911 31.8535 102.363 31.7362C102.614 31.9372 107.555 36.7277 110.302 42.942C112.664 48.436 114.858 53.997 109.18 57.28C103.502 60.563 98.2425 59.2062 91.6932 62.975C85.3115 66.66 86.9697 70.2445 81.7772 73.2428C76.5847 76.241 67.4727 75.1523 56.5685 73.6615C43.8217 71.8692 27.6245 67.0285 15.9497 60.2782C-2.77677 49.4745 -2.15702 37.649 8.21123 31.6525C13.722 28.47 22.499 28.2355 25.9662 26.2255C29.266 24.316 29.9695 18.8052 36.2507 15.1705C38.6292 13.797 47.423 9.0065 62.3472 11.1337L62.364 11.1505ZM25.3632 12.323C24.4085 8.772 21.3097 4.86925 16.3685 2.02175C15.6817 1.61975 14.9447 1.25125 14.2747 1C10.238 3.546 8.27823 8.21925 9.29998 12.3062C10.037 15.4887 12.7505 19.6092 17.7587 22.4902C18.5125 22.9257 19.3667 23.2942 19.6682 23.4115C19.9865 23.2942 20.489 23.0765 20.9245 22.8252C24.71 20.631 26.5525 16.1922 25.3632 12.3397V12.323Z" fill="white" stroke="black" stroke-width="0.5" stroke-miterlimit="1.5" stroke-linecap="square"/>
</svg>
