<svg width="45" height="46" viewBox="0 0 45 46" fill="none" xmlns="http://www.w3.org/2000/svg">
<path fill-rule="evenodd" clip-rule="evenodd" d="M1.20646 3.5162C0.679199 4.5709 0.679199 5.95092 0.679199 8.71091V10.224L44.1907 6.19241C44.1448 4.98983 44.0213 4.18649 43.6876 3.5162C43.2239 2.58888 42.4839 1.83493 41.5738 1.36241C40.5386 0.825195 39.1842 0.825195 36.4752 0.825195H8.41888C5.70998 0.825195 4.35554 0.825195 3.32037 1.36241C2.4102 1.83493 1.67021 2.58888 1.20646 3.5162ZM44.215 11.1407L32.4481 12.2299L38.5093 45.1699C39.9412 45.138 40.8385 45.0271 41.5738 44.6452C42.4839 44.1727 43.2239 43.4188 43.6876 42.4913C44.215 41.4367 44.215 40.0566 44.215 37.2967V11.1407ZM33.5922 45.1823L27.6085 12.6784L0.679199 15.1723V37.2967C0.679199 40.0566 0.679199 41.4367 1.20646 42.4913C1.67021 43.4188 2.4102 44.1727 3.32037 44.6452C4.35554 45.1823 5.70998 45.1823 8.41888 45.1823H33.5922ZM23.6563 30.4705C23.6563 35.7886 18.4804 39.5245 16.2239 40.9019C15.9122 41.0934 15.5551 41.1946 15.1911 41.1946C14.8271 41.1946 14.47 41.0934 14.1583 40.9019C11.9017 39.5245 6.72581 35.7886 6.72581 30.4682C6.72581 25.2511 10.8279 21.7717 15.1911 21.7717C19.7067 21.7717 23.6563 25.2511 23.6563 30.4705Z" fill="#0A0A0A"/>
</svg>
