<svg width="90" height="120" viewBox="0 0 90 120" fill="none" xmlns="http://www.w3.org/2000/svg">
<path fill-rule="evenodd" clip-rule="evenodd" d="M12.732 115.514V110.423L66.7597 79.2301L63.8766 77.6505L47.9121 86.8673L31.0889 77.0831L24.2338 73.1265V68.0351L31.0889 64.0784L71.6671 40.6455L78.5222 44.6021V49.6936L42.3453 70.5808L48.9856 74.4147L58.0797 69.1546L64.9347 65.1979L71.7898 69.1546L77.9854 72.7431L84.8405 76.6997V81.7912L77.9854 85.7478L19.5411 119.486L12.686 115.53L12.732 115.514Z" fill="white" stroke="black" stroke-width="0.62" stroke-linecap="square" stroke-linejoin="round"/>
<path fill-rule="evenodd" clip-rule="evenodd" d="M78.0313 80.6409L19.587 114.379L12.7319 110.423L71.1763 76.6843L63.263 72.1143L47.2986 81.3311L31.1041 71.9763L24.249 68.0197L31.1041 64.0631L71.6823 40.6301L78.5374 44.5867L37.9591 68.0197L47.2986 73.4178L56.3926 68.1577L63.2477 64.2011L71.8204 69.1545L78.016 72.7431L84.871 76.6997L78.016 80.6563L78.0313 80.6409Z" fill="white" stroke="black" stroke-width="0.62" stroke-linecap="square" stroke-linejoin="round"/>
<path fill-rule="evenodd" clip-rule="evenodd" d="M29.0484 95.4858C28.8491 95.8999 28.6344 96.2986 28.4197 96.6974L29.0484 95.4858ZM11.6424 106.374C11.4277 106.221 11.213 106.067 11.0137 105.899L11.6424 106.374Z" fill="white" stroke="black" stroke-width="0.62" stroke-linecap="square" stroke-linejoin="round"/>
<path fill-rule="evenodd" clip-rule="evenodd" d="M20.0316 112.708L13.3146 109.564L4.29717 102.755C2.24219 101.007 1 97.8016 1 93.4769C1 84.4135 6.52085 73.8779 13.3146 69.952C15.7836 68.5257 18.084 68.173 20.0316 68.7251C21.5498 69.1698 26.6719 71.7002 27.8681 72.3137C30.5979 73.7399 32.3462 77.2978 32.3462 82.3892C32.3462 86.6985 31.0886 91.3606 29.049 95.4706L20.0316 112.693V112.708Z" fill="#6E00DC" stroke="black" stroke-width="0.5" stroke-miterlimit="1.5" stroke-linecap="square"/>
<path fill-rule="evenodd" clip-rule="evenodd" d="M11.014 105.899C8.95899 104.151 7.7168 100.945 7.7168 96.6208C7.7168 87.5574 13.2376 77.0218 20.0314 73.0958C26.8251 69.1699 32.3459 73.3412 32.3459 82.4046C32.3459 86.7139 31.0884 91.376 29.0487 95.4859L20.0314 112.723L11.014 105.899Z" fill="white" stroke="black" stroke-width="0.62" stroke-linecap="square" stroke-linejoin="round"/>
<path d="M20.0312 95.4399C22.6843 93.9063 24.8466 89.781 24.8466 86.2385C24.8466 82.6959 22.6843 81.055 20.0312 82.6039C17.3782 84.1528 15.2158 88.2628 15.2158 91.8053C15.2158 95.3479 17.3782 96.9888 20.0312 95.4399Z" fill="white" stroke="black" stroke-width="0.62" stroke-linecap="square" stroke-linejoin="round"/>
<path fill-rule="evenodd" clip-rule="evenodd" d="M85.5148 28.0088C85.3154 28.4229 85.1007 28.8216 84.886 29.2203L85.5148 28.0088ZM68.1087 38.8971C67.894 38.7438 67.6793 38.5904 67.48 38.4217L68.1087 38.8971Z" fill="white" stroke="black" stroke-width="0.62" stroke-linecap="square" stroke-linejoin="round"/>
<path fill-rule="evenodd" clip-rule="evenodd" d="M76.4979 45.2462L69.7809 42.1023L60.7635 35.278C58.7085 33.5297 57.4663 30.3245 57.4663 25.9999C57.4663 16.9365 62.9872 6.40084 69.7809 2.47491C72.2499 1.04869 74.5503 0.695967 76.4979 1.24805C78.0161 1.69279 83.1383 4.22318 84.3344 4.8366C87.0642 6.26282 88.8125 9.8207 88.8125 14.9122C88.8125 19.2215 87.5549 23.8835 85.5153 27.9935L76.4979 45.2155V45.2462Z" fill="#6E00DC" stroke="black" stroke-width="0.5" stroke-miterlimit="1.5" stroke-linecap="square"/>
<path fill-rule="evenodd" clip-rule="evenodd" d="M67.4803 38.4217C65.4253 36.6734 64.1831 33.4683 64.1831 29.1436C64.1831 20.0802 69.704 9.54458 76.4977 5.61864C83.2914 1.69271 88.8122 5.86402 88.8122 14.9274C88.8122 19.2367 87.5547 23.8988 85.5151 28.0088L76.4977 45.2461L67.4803 38.4217Z" fill="white" stroke="black" stroke-width="0.62" stroke-linecap="square" stroke-linejoin="round"/>
<path d="M76.4975 27.9781C79.1506 26.4445 81.3129 22.3192 81.3129 18.7767C81.3129 15.2341 79.1506 13.5932 76.4975 15.1421C73.8445 16.6757 71.6821 20.801 71.6821 24.3435C71.6821 27.8861 73.8445 29.527 76.4975 27.9781Z" fill="white" stroke="black" stroke-width="0.62" stroke-linecap="square" stroke-linejoin="round"/>
</svg>
