<svg width="44" height="44" viewBox="0 0 44 44" fill="none" xmlns="http://www.w3.org/2000/svg">
<path fill-rule="evenodd" clip-rule="evenodd" d="M7.85734 39.0432C7.53362 39.0432 7.26178 38.8027 6.96949 38.52C6.4462 38.0109 5.97162 37.2909 5.53634 36.471C4.09849 33.7676 3.14307 30.0148 3.14307 28.111C3.14307 25.5249 5.25507 23.426 7.85734 23.426C10.4596 23.426 12.5716 25.5249 12.5716 28.111C12.5716 30.0148 11.6162 33.7676 10.1783 36.471C9.74307 37.2909 9.26849 38.0109 8.7452 38.52C8.45291 38.8027 8.18107 39.0432 7.85734 39.0432ZM10.2145 28.111C10.2145 26.818 9.15849 25.7686 7.85734 25.7686C6.5562 25.7686 5.5002 26.818 5.5002 28.111C5.5002 29.4043 6.5562 30.4537 7.85734 30.4537C9.15849 30.4537 10.2145 29.4043 10.2145 28.111Z" fill="white"/>
<path fill-rule="evenodd" clip-rule="evenodd" d="M7.85734 39.0432C7.53362 39.0432 7.26178 38.8027 6.96949 38.52C6.4462 38.0109 5.97162 37.2909 5.53634 36.471C4.09849 33.7676 3.14307 30.0148 3.14307 28.111C3.14307 25.5249 5.25507 23.426 7.85734 23.426C10.4596 23.426 12.5716 25.5249 12.5716 28.111C12.5716 30.0148 11.6162 33.7676 10.1783 36.471C9.74307 37.2909 9.26849 38.0109 8.7452 38.52C8.45291 38.8027 8.18107 39.0432 7.85734 39.0432ZM10.2145 28.111C10.2145 26.818 9.15849 25.7686 7.85734 25.7686C6.5562 25.7686 5.5002 26.818 5.5002 28.111C5.5002 29.4043 6.5562 30.4537 7.85734 30.4537C9.15849 30.4537 10.2145 29.4043 10.2145 28.111Z" fill="#0A0A0A"/>
<path fill-rule="evenodd" clip-rule="evenodd" d="M36.1429 3.12344C38.7452 3.12344 40.8572 5.22241 40.8572 7.80864C40.8572 9.71239 39.9018 13.4652 38.4639 16.1686C38.0287 16.9885 37.5541 17.7084 37.0308 18.2176C36.7384 18.5002 36.4667 18.7407 36.1429 18.7407C35.8192 18.7407 35.5473 18.5002 35.2551 18.2176C34.7318 17.7084 34.2572 16.9885 33.8219 16.1686C32.3841 13.4652 31.4287 9.71239 31.4287 7.80864C31.4287 5.22241 33.5407 3.12344 36.1429 3.12344ZM38.5001 7.80864C38.5001 6.51553 37.4441 5.46604 36.1429 5.46604C34.8418 5.46604 33.7858 6.51553 33.7858 7.80864C33.7858 9.10174 34.8418 10.1512 36.1429 10.1512C37.4441 10.1512 38.5001 9.10174 38.5001 7.80864Z" fill="white"/>
<path fill-rule="evenodd" clip-rule="evenodd" d="M36.1429 3.12344C38.7452 3.12344 40.8572 5.22241 40.8572 7.80864C40.8572 9.71239 39.9018 13.4652 38.4639 16.1686C38.0287 16.9885 37.5541 17.7084 37.0308 18.2176C36.7384 18.5002 36.4667 18.7407 36.1429 18.7407C35.8192 18.7407 35.5473 18.5002 35.2551 18.2176C34.7318 17.7084 34.2572 16.9885 33.8219 16.1686C32.3841 13.4652 31.4287 9.71239 31.4287 7.80864C31.4287 5.22241 33.5407 3.12344 36.1429 3.12344ZM38.5001 7.80864C38.5001 6.51553 37.4441 5.46604 36.1429 5.46604C34.8418 5.46604 33.7858 6.51553 33.7858 7.80864C33.7858 9.10174 34.8418 10.1512 36.1429 10.1512C37.4441 10.1512 38.5001 9.10174 38.5001 7.80864Z" fill="#0A0A0A"/>
<path fill-rule="evenodd" clip-rule="evenodd" d="M31.6926 18.7407H25.7526C21.945 18.7407 18.8571 21.8095 18.8571 25.5935V25.9435C18.8571 29.7275 21.945 32.7963 25.7526 32.7963H31.5827C32.3761 32.7963 33.1351 33.1087 33.6961 33.6662C34.2571 34.2238 34.5714 34.978 34.5714 35.7667V36.0728C34.5714 36.8615 34.2571 37.6158 33.6961 38.1733C33.1351 38.7308 32.3761 39.0432 31.5827 39.0432H12.3074C14.3471 35.862 15.7143 30.6192 15.7143 28.111C15.7143 23.8007 12.1943 20.3025 7.85713 20.3025C3.52 20.3025 0 23.8007 0 28.111C0 30.7302 1.48971 36.329 3.68029 39.4508C4.89814 41.1858 6.39258 42.1667 7.85713 42.1667H31.5827C33.209 42.1667 34.7679 41.5248 35.9181 40.3815C37.0684 39.2385 37.7142 37.6891 37.7142 36.0728V35.7667C37.7142 34.1502 37.0684 32.6011 35.9181 31.458C34.7679 30.3147 33.209 29.6729 31.5827 29.6729H29.8571H25.7526C23.6799 29.6729 22 28.0034 22 25.9435V25.5935C22 23.5338 23.6799 21.8642 25.7526 21.8642H36.1429C37.6073 21.8642 39.1019 20.8835 40.3198 19.1484C42.5102 16.0265 44 10.4277 44 7.80864C44 3.49828 40.48 0 36.1429 0C31.8058 0 28.2858 3.49828 28.2858 7.80864C28.2858 10.3168 29.6529 15.5595 31.6926 18.7407ZM7.85713 39.0432C7.53342 39.0432 7.26158 38.8027 6.96929 38.52C6.446 38.0109 5.97142 37.2909 5.53614 36.4711C4.09829 33.7676 3.14287 30.0148 3.14287 28.111C3.14287 25.525 5.25486 23.426 7.85713 23.426C10.4594 23.426 12.5714 25.525 12.5714 28.111C12.5714 30.0148 11.616 33.7676 10.1781 36.4711C9.74287 37.2909 9.26829 38.0109 8.745 38.52C8.45271 38.8027 8.18087 39.0432 7.85713 39.0432ZM36.1429 3.12345C38.7451 3.12345 40.8571 5.22242 40.8571 7.80864C40.8571 9.7124 39.9018 13.4652 38.4639 16.1686C38.0287 16.9885 37.554 17.7084 37.0308 18.2176C36.7384 18.5002 36.4667 18.7407 36.1429 18.7407C35.8191 18.7407 35.5472 18.5002 35.255 18.2176C34.7318 17.7084 34.2571 16.9885 33.8219 16.1686C32.384 13.4652 31.4287 9.7124 31.4287 7.80864C31.4287 5.22242 33.5406 3.12345 36.1429 3.12345Z" fill="white"/>
<path fill-rule="evenodd" clip-rule="evenodd" d="M31.6926 18.7407H25.7526C21.945 18.7407 18.8571 21.8095 18.8571 25.5935V25.9435C18.8571 29.7275 21.945 32.7963 25.7526 32.7963H31.5827C32.3761 32.7963 33.1351 33.1087 33.6961 33.6662C34.2571 34.2238 34.5714 34.978 34.5714 35.7667V36.0728C34.5714 36.8615 34.2571 37.6158 33.6961 38.1733C33.1351 38.7308 32.3761 39.0432 31.5827 39.0432H12.3074C14.3471 35.862 15.7143 30.6192 15.7143 28.111C15.7143 23.8007 12.1943 20.3025 7.85713 20.3025C3.52 20.3025 0 23.8007 0 28.111C0 30.7302 1.48971 36.329 3.68029 39.4508C4.89814 41.1858 6.39258 42.1667 7.85713 42.1667H31.5827C33.209 42.1667 34.7679 41.5248 35.9181 40.3815C37.0684 39.2385 37.7142 37.6891 37.7142 36.0728V35.7667C37.7142 34.1502 37.0684 32.6011 35.9181 31.458C34.7679 30.3147 33.209 29.6729 31.5827 29.6729H29.8571H25.7526C23.6799 29.6729 22 28.0034 22 25.9435V25.5935C22 23.5338 23.6799 21.8642 25.7526 21.8642H36.1429C37.6073 21.8642 39.1019 20.8835 40.3198 19.1484C42.5102 16.0265 44 10.4277 44 7.80864C44 3.49828 40.48 0 36.1429 0C31.8058 0 28.2858 3.49828 28.2858 7.80864C28.2858 10.3168 29.6529 15.5595 31.6926 18.7407ZM7.85713 39.0432C7.53342 39.0432 7.26158 38.8027 6.96929 38.52C6.446 38.0109 5.97142 37.2909 5.53614 36.4711C4.09829 33.7676 3.14287 30.0148 3.14287 28.111C3.14287 25.525 5.25486 23.426 7.85713 23.426C10.4594 23.426 12.5714 25.525 12.5714 28.111C12.5714 30.0148 11.616 33.7676 10.1781 36.4711C9.74287 37.2909 9.26829 38.0109 8.745 38.52C8.45271 38.8027 8.18087 39.0432 7.85713 39.0432ZM36.1429 3.12345C38.7451 3.12345 40.8571 5.22242 40.8571 7.80864C40.8571 9.7124 39.9018 13.4652 38.4639 16.1686C38.0287 16.9885 37.554 17.7084 37.0308 18.2176C36.7384 18.5002 36.4667 18.7407 36.1429 18.7407C35.8191 18.7407 35.5472 18.5002 35.255 18.2176C34.7318 17.7084 34.2571 16.9885 33.8219 16.1686C32.384 13.4652 31.4287 9.7124 31.4287 7.80864C31.4287 5.22242 33.5406 3.12345 36.1429 3.12345Z" fill="#0A0A0A"/>
</svg>
