<svg width="127" height="96" viewBox="0 0 127 96" fill="none" xmlns="http://www.w3.org/2000/svg">
<g clip-path="url(#clip0_90_774)">
<path fill-rule="evenodd" clip-rule="evenodd" d="M0.539062 33.1761V26.8903L45.4329 0.531006L67.5009 13.4794V19.7653L22.5901 46.1246L0.539062 33.1761Z" fill="#6E00DC" stroke="black" stroke-width="0.5" stroke-miterlimit="1.5" stroke-linecap="square"/>
<path d="M45.4332 0.531006L0.522461 26.8903L22.5904 39.8388L67.4843 13.4794L45.4332 0.531006Z" fill="white" stroke="black" stroke-width="0.62" stroke-linecap="square" stroke-linejoin="round"/>
<path fill-rule="evenodd" clip-rule="evenodd" d="M4.3125 64.9306V58.6448L35.8983 40.1128L59.3644 53.9005V60.1863L27.7786 78.7183L4.3125 64.9306Z" fill="#6E00DC" stroke="black" stroke-width="0.5" stroke-miterlimit="1.5" stroke-linecap="square"/>
<path d="M35.8983 40.1128L4.3125 58.6448L27.7786 72.4154L59.3644 53.8834L35.8983 40.1128Z" fill="white" stroke="black" stroke-width="0.62" stroke-linecap="square" stroke-linejoin="round"/>
<path fill-rule="evenodd" clip-rule="evenodd" d="M42.7881 42.3393V36.0535L74.3738 17.5215L126.478 48.1113V54.3971L94.892 72.9292L42.7881 42.3393Z" fill="#6E00DC" stroke="black" stroke-width="0.5" stroke-miterlimit="1.5" stroke-linecap="square"/>
<path d="M74.3738 17.5215L42.7881 36.0535L94.892 66.6433L126.478 48.1113L74.3738 17.5215Z" fill="white" stroke="black" stroke-width="0.62" stroke-linecap="square" stroke-linejoin="round"/>
<path fill-rule="evenodd" clip-rule="evenodd" d="M32.9502 81.7328V75.4469L64.5191 56.9149L88.0021 70.7026V76.9884L56.4163 95.5204L32.9502 81.7499V81.7328Z" fill="#6E00DC" stroke="black" stroke-width="0.5" stroke-miterlimit="1.5" stroke-linecap="square"/>
<path d="M64.5193 56.932L32.9336 75.464L56.3997 89.2346L87.9855 70.7026L64.5193 56.932Z" fill="white" stroke="black" stroke-width="0.62" stroke-linecap="square" stroke-linejoin="round"/>
</g>
<defs>
<clipPath id="clip0_90_774">
<rect width="127" height="96" fill="white"/>
</clipPath>
</defs>
</svg>
