<svg width="23" height="19" viewBox="0 0 23 19" fill="none" xmlns="http://www.w3.org/2000/svg">
<path d="M15.4788 0.637721V0.633789L16.5027 0.633789L16.8767 0.708502C17.1261 0.757007 17.3525 0.820572 17.556 0.899217C17.7595 0.977862 17.9563 1.06962 18.1466 1.17448C18.337 1.27933 18.5096 1.38617 18.6645 1.49495C18.818 1.60244 18.9559 1.71648 19.0779 1.83706C19.1987 1.95896 19.387 1.99042 19.643 1.93144C19.8989 1.87245 20.1746 1.79052 20.4699 1.68567C20.7652 1.58082 21.0573 1.46285 21.346 1.33177C21.6348 1.20068 21.8107 1.11746 21.8737 1.08207C21.9354 1.04538 21.9682 1.02572 21.9721 1.02308L21.9761 1.01718L21.9958 1.00735L22.0154 0.997523L22.0351 0.987693L22.0548 0.977862L22.0588 0.971964L22.0647 0.968031L22.0706 0.964099L22.0745 0.958201L22.0942 0.952302L22.1139 0.94837L22.11 0.977862L22.104 1.00735L22.0942 1.03685L22.0844 1.06634L22.0745 1.086L22.0647 1.10566L22.0548 1.13515C22.0483 1.15481 22.0417 1.18102 22.0351 1.2138C22.0286 1.24657 21.9662 1.37764 21.8481 1.60702C21.73 1.83641 21.5823 2.06907 21.4051 2.305C21.2279 2.54094 21.0691 2.71919 20.9287 2.83979C20.7869 2.96169 20.693 3.04688 20.6471 3.09539C20.6012 3.14519 20.5454 3.19106 20.4797 3.23302L20.3813 3.2979L20.3616 3.30773L20.3419 3.31756L20.338 3.32346L20.3321 3.32739L20.3262 3.33132L20.3222 3.33722L20.3025 3.34705L20.2829 3.35688L20.2789 3.36278L20.273 3.36671L20.2671 3.37064L20.2632 3.37654L20.2592 3.38244L20.2533 3.38637L20.2474 3.39031L20.2435 3.3962H20.3419L20.8932 3.27824C21.2607 3.19959 21.6118 3.10457 21.9465 2.99315L22.4781 2.8162L22.5372 2.79653L22.5667 2.7867L22.5864 2.77687L22.6061 2.76704L22.6258 2.75721L22.6455 2.74738L22.6849 2.74148L22.7242 2.73755V2.77687L22.7144 2.78081L22.7045 2.7867L22.7006 2.7926L22.6947 2.79653L22.6888 2.80047L22.6849 2.80637L22.6809 2.81226L22.675 2.8162L22.6691 2.82013L22.6652 2.82603L22.6612 2.83192L22.6553 2.83586L22.6455 2.85552L22.6356 2.87518L22.6297 2.87911C22.6271 2.88304 22.5438 2.99445 22.3797 3.21335C22.2156 3.43356 22.127 3.54496 22.1139 3.5476C22.1008 3.55153 22.0824 3.57119 22.0588 3.60658C22.0364 3.64327 21.8973 3.78943 21.6414 4.04503C21.3854 4.30063 21.1347 4.52803 20.8893 4.72728C20.6425 4.92782 20.5178 5.17424 20.5152 5.46654C20.5113 5.75753 20.4962 6.08654 20.4699 6.45354C20.4436 6.82056 20.3944 7.21705 20.3222 7.64305C20.25 8.06905 20.1385 8.55075 19.9875 9.08816C19.8366 9.62556 19.6528 10.1499 19.4362 10.6611C19.2197 11.1723 18.9933 11.631 18.757 12.0374C18.5207 12.4437 18.3042 12.7878 18.1073 13.0696C17.9104 13.3514 17.7102 13.6168 17.5068 13.8659C17.3033 14.1149 17.0461 14.3954 16.735 14.7074C16.4226 15.018 16.252 15.1884 16.2231 15.2186C16.1929 15.2474 16.0643 15.3549 15.8372 15.541C15.6114 15.7284 15.3686 15.9159 15.1087 16.1033C14.8501 16.2894 14.6126 16.4448 14.396 16.5693C14.1794 16.6938 13.9182 16.836 13.6124 16.9959C13.3079 17.1572 12.9784 17.3066 12.624 17.4442C12.2696 17.5818 11.8955 17.7096 11.5018 17.8276C11.108 17.9456 10.7274 18.0373 10.3598 18.1029C9.99232 18.1684 9.57558 18.2241 9.10961 18.27L8.41067 18.3388V18.3486H7.13091V18.3388L6.96356 18.329C6.852 18.3224 6.76012 18.3159 6.68792 18.3093C6.61574 18.3028 6.34337 18.2667 5.87085 18.2012C5.39832 18.1356 5.02753 18.0701 4.75844 18.0046C4.48938 17.939 4.08903 17.8145 3.55744 17.631C3.02585 17.4475 2.57105 17.262 2.19303 17.0746C1.81633 16.8885 1.58007 16.7705 1.48424 16.7207C1.38974 16.6722 1.28342 16.6119 1.16529 16.5398L0.988091 16.4317L0.984173 16.4258L0.978247 16.4218L0.97234 16.4179L0.968403 16.412L0.948714 16.4022L0.929025 16.3923L0.925107 16.3864L0.919181 16.3825L0.913275 16.3786L0.909337 16.3727L0.905419 16.3668L0.899493 16.3628H0.889648V16.3235L0.909337 16.3275L0.929025 16.3334L1.01762 16.3432C1.07669 16.3497 1.23749 16.3596 1.49999 16.3727C1.76252 16.3858 2.04143 16.3858 2.33676 16.3727C2.63208 16.3596 2.93399 16.3301 3.24243 16.2842C3.55089 16.2383 3.91513 16.1597 4.33514 16.0483C4.75518 15.9368 5.14107 15.8045 5.49285 15.6511C5.8433 15.4964 6.09268 15.3811 6.24101 15.3051C6.388 15.2304 6.61245 15.0914 6.91434 14.8882L7.36717 14.5835L7.37111 14.5776L7.37702 14.5737L7.38295 14.5697L7.38686 14.5638L7.3908 14.5579L7.39671 14.554L7.40263 14.5501L7.40655 14.5442L7.42624 14.5383L7.44593 14.5343L7.44987 14.5147L7.45577 14.495L7.4617 14.4911L7.46562 14.4852L7.30811 14.4754C7.20311 14.4688 7.10138 14.4622 7.00294 14.4557C6.90449 14.4492 6.75027 14.4197 6.54026 14.3672C6.33026 14.3148 6.10384 14.2361 5.861 14.1313C5.61818 14.0264 5.38192 13.9019 5.15222 13.7577C4.92253 13.6135 4.75648 13.4936 4.6541 13.3979C4.55303 13.3035 4.42177 13.1698 4.26032 12.9968C4.1002 12.8225 3.96106 12.6436 3.84293 12.4601C3.7248 12.2766 3.61192 12.0649 3.5043 11.825L3.34087 11.4672L3.33103 11.4377L3.32118 11.4082L3.31528 11.3885L3.31134 11.3689L3.34087 11.3728L3.3704 11.3787L3.58698 11.4082C3.73137 11.4279 3.95779 11.4344 4.26623 11.4279C4.57469 11.4213 4.78798 11.4082 4.90611 11.3885C5.02424 11.3689 5.09644 11.3558 5.12268 11.3492L5.16206 11.3394L5.21128 11.3295L5.2605 11.3197L5.26444 11.3138L5.27035 11.3099L5.27627 11.306L5.28019 11.3001L5.24081 11.2902L5.20144 11.2804L5.16206 11.2706L5.12268 11.2607L5.08331 11.2509C5.05706 11.2444 5.01113 11.2312 4.94549 11.2116C4.87986 11.1919 4.70267 11.1198 4.4139 10.9953C4.12514 10.8708 3.89544 10.7495 3.7248 10.6316C3.55373 10.5133 3.39062 10.3839 3.23652 10.2442C3.08295 10.1027 2.9143 9.92048 2.73053 9.69766C2.54677 9.47484 2.38271 9.21596 2.23831 8.92104C2.09394 8.62612 1.98565 8.34431 1.91345 8.0756C1.84154 7.80847 1.7941 7.53536 1.77171 7.25965L1.73626 6.84677L1.75594 6.8507L1.77563 6.8566L1.79532 6.86643L1.81501 6.87626L1.8347 6.88609L1.85439 6.89592L2.15956 7.03355C2.36302 7.12531 2.61568 7.20395 2.91757 7.26948C3.21947 7.33502 3.39994 7.37107 3.459 7.37762L3.5476 7.38745H3.7248L3.72088 7.38155L3.71495 7.37762L3.70905 7.37369L3.70511 7.36779L3.70119 7.36189L3.69526 7.35796L3.68936 7.35403L3.68542 7.34813L3.66573 7.3383L3.64604 7.32847L3.64212 7.32257L3.6362 7.31864L3.63029 7.31471L3.62635 7.30881L3.60667 7.29898L3.58698 7.28915L3.58306 7.28325C3.57912 7.28061 3.52267 7.23868 3.41372 7.15741C3.30608 7.07484 3.19321 6.96802 3.07508 6.83694C2.95694 6.70585 2.83881 6.56822 2.72068 6.42405C2.60233 6.27954 2.49692 6.12493 2.40567 5.96201C2.3138 5.79817 2.21666 5.58974 2.11427 5.33678C2.01321 5.08511 1.93643 4.83148 1.88392 4.57588C1.83143 4.32029 1.8019 4.06797 1.79532 3.81892C1.78876 3.56987 1.79532 3.35688 1.81501 3.17993C1.8347 3.00298 1.87407 2.80308 1.93314 2.58026C1.99221 2.35744 2.07754 2.1215 2.18909 1.87245L2.35644 1.49889L2.36629 1.4694L2.37613 1.4399L2.38206 1.43597L2.38598 1.43007L2.38991 1.42417L2.39582 1.42024L2.40175 1.42417L2.40567 1.43007L2.4096 1.43597L2.41551 1.4399L2.42144 1.44384L2.42535 1.44973L2.42929 1.45563L2.4352 1.45956L2.44504 1.47923L2.45489 1.49889L2.46081 1.50282L2.46473 1.50872L2.73053 1.80364C2.90772 2.00025 3.11774 2.21981 3.36056 2.46229C3.6034 2.70477 3.73793 2.83061 3.76417 2.83979C3.79044 2.85027 3.82324 2.88041 3.86262 2.93023C3.90199 2.97874 4.03326 3.09474 4.25639 3.27824C4.47954 3.46174 4.77158 3.67475 5.13253 3.91723C5.4935 4.15971 5.89382 4.39893 6.33353 4.63487C6.77325 4.8708 7.24578 5.08379 7.7511 5.27386C8.25645 5.46393 8.61084 5.58844 8.81428 5.64743C9.01774 5.70641 9.36556 5.78177 9.85777 5.87353C10.35 5.96529 10.7208 6.02427 10.9702 6.05048C11.2196 6.07669 11.3902 6.09177 11.4821 6.0957L11.6199 6.09964L11.616 6.07014L11.6101 6.04065L11.5707 5.79489C11.5444 5.63105 11.5313 5.40166 11.5313 5.10674C11.5313 4.81182 11.5543 4.53984 11.6002 4.29079C11.6462 4.04174 11.7151 3.78943 11.8069 3.53383C11.8988 3.27824 11.9887 3.07309 12.0767 2.91843C12.1659 2.76508 12.2828 2.59009 12.4271 2.39348C12.5715 2.19686 12.7586 1.9937 12.9882 1.78398C13.218 1.57425 13.4805 1.38747 13.7758 1.22363C14.0711 1.05979 14.3435 0.935256 14.5929 0.850064C14.8423 0.764871 15.0523 0.709151 15.2229 0.682942C15.3935 0.656734 15.4788 0.641654 15.4788 0.637721Z" fill="white"/>
</svg>
