<svg width="48" height="49" viewBox="0 0 48 49" fill="none" xmlns="http://www.w3.org/2000/svg">
<path fill-rule="evenodd" clip-rule="evenodd" d="M17.284 1.44847C12.6256 2.79798 8.48413 5.51536 5.40066 9.24563C2.31716 12.9759 0.435003 17.5456 0 22.3579H11.0155C11.6541 15.0352 13.7859 7.91913 17.2805 1.44504L17.284 1.44847ZM11.0155 26.6433H0C0.434093 31.4558 2.31546 36.0258 5.39833 39.7568C8.48122 43.4878 12.6223 46.2059 17.2805 47.5562C13.7859 41.0822 11.6541 33.966 11.0155 26.6433ZM22.8021 48.4716C18.6258 41.8804 16.0668 34.4025 15.3322 26.6433H32.6644C31.9296 34.4025 29.3707 41.8804 25.1945 48.4716C24.3974 48.5101 23.5989 48.5101 22.8021 48.4716ZM30.7193 47.5527C35.3771 46.2027 39.5179 43.485 42.6007 39.7547C45.6835 36.0247 47.5653 31.4551 48 26.6433H36.9846C36.3459 33.966 34.214 41.0822 30.7193 47.5562V47.5527ZM36.9846 22.3579H48C47.5658 17.5455 45.6844 12.9753 42.6016 9.24439C39.5188 5.51349 35.3776 2.79537 30.7193 1.44504C34.2142 7.91908 36.3459 15.0351 36.9846 22.3579ZM22.8021 0.529678C23.6001 0.490758 24.3997 0.490758 25.198 0.529678C29.373 7.12104 31.9308 14.5989 32.6644 22.3579H15.3356C16.0826 14.5516 18.6471 7.06753 22.8021 0.529678Z" fill="#0A0A0A"/>
</svg>
